<svg width="332" height="174" viewBox="0 0 332 174" fill="none" xmlns="http://www.w3.org/2000/svg">
<g clip-path="url(#clip0_646_7723)">
<g clip-path="url(#clip1_646_7723)">
<g clip-path="url(#clip2_646_7723)">
<rect x="314.255" y="15.5725" width="0.158095" height="147.503" stroke="white" stroke-width="0.158095"/>
</g>
<g clip-path="url(#clip3_646_7723)">
<rect x="293.041" y="15.5725" width="0.158095" height="147.503" stroke="white" stroke-width="0.158095"/>
</g>
<g clip-path="url(#clip4_646_7723)">
<rect x="271.826" y="15.5725" width="0.158095" height="147.503" stroke="white" stroke-width="0.158095"/>
</g>
<g clip-path="url(#clip5_646_7723)">
<rect x="250.612" y="15.5725" width="0.158095" height="147.503" stroke="white" stroke-width="0.158095"/>
</g>
<g clip-path="url(#clip6_646_7723)">
<rect x="229.397" y="15.5725" width="0.158095" height="147.503" stroke="white" stroke-width="0.158095"/>
</g>
<g clip-path="url(#clip7_646_7723)">
<rect x="208.184" y="15.5725" width="0.158095" height="147.503" stroke="white" stroke-width="0.158095"/>
</g>
<g clip-path="url(#clip8_646_7723)">
<rect x="186.97" y="15.5725" width="0.158095" height="147.503" stroke="white" stroke-width="0.158095"/>
</g>
<g clip-path="url(#clip9_646_7723)">
<rect x="165.755" y="15.5725" width="0.158095" height="147.503" stroke="white" stroke-width="0.158095"/>
</g>
<g clip-path="url(#clip10_646_7723)">
<rect x="144.541" y="15.5725" width="0.158095" height="147.503" stroke="white" stroke-width="0.158095"/>
</g>
<g clip-path="url(#clip11_646_7723)">
<rect x="123.326" y="15.5725" width="0.158095" height="147.503" stroke="white" stroke-width="0.158095"/>
</g>
<g clip-path="url(#clip12_646_7723)">
<rect x="102.112" y="15.5725" width="0.158095" height="147.503" stroke="white" stroke-width="0.158095"/>
</g>
<g clip-path="url(#clip13_646_7723)">
<rect x="80.8974" y="15.5725" width="0.158095" height="147.503" stroke="white" stroke-width="0.158095"/>
</g>
<g clip-path="url(#clip14_646_7723)">
<rect x="59.6835" y="15.5725" width="0.158095" height="147.503" stroke="white" stroke-width="0.158095"/>
</g>
<g clip-path="url(#clip15_646_7723)">
<rect x="17.7856" y="15.5725" width="0.158095" height="147.503" stroke="white" stroke-width="0.158095"/>
<rect x="38.4697" y="15.5725" width="0.158095" height="147.503" stroke="white" stroke-width="0.158095"/>
</g>
</g>
<g clip-path="url(#clip16_646_7723)">
<rect x="17.7856" y="120.74" width="296.429" height="0.158095" stroke="white" stroke-width="0.158095"/>
<rect x="17.7856" y="84.7563" width="296.429" height="0.158095" stroke="white" stroke-width="0.158095"/>
<rect x="17.7856" y="50.0063" width="296.429" height="0.158095" stroke="white" stroke-width="0.158095"/>
<rect x="17.7856" y="15.2563" width="296.429" height="0.158095" stroke="white" stroke-width="0.158095"/>
</g>
<rect x="17.7065" y="15.1772" width="297" height="139" fill="white" fill-opacity="0.01"/>
<path d="M17.7065 62.9221L38.5819 85.8037L59.4573 80.5452L80.9653 91.0622L102.79 70.5967L123.596 75.9973L145.173 137.962L166.207 128.014L187.873 84.8089L208.498 104.99L229.623 102.858L251.131 119.771L272.639 107.833L293.199 121.192L314.707 142.794" stroke="white" stroke-width="1.26476" stroke-linecap="round"/>
</g>
<path d="M24.9312 72.926H19.9146V72.6096H24.9312V72.926ZM26.1851 72.6096H31.2017V72.926H26.1851V72.6096ZM32.4556 72.6096H37.4722V72.926H32.4556V72.6096ZM38.7261 72.7678V72.6096H43.7427V72.926H38.7271V72.7678H38.7261ZM44.9976 72.6096H50.0132V72.7678H50.0142V72.926H44.9976V72.6096ZM51.2681 72.6096H56.2847V72.926H51.2681V72.6096ZM57.5386 72.6096H62.5552V72.926H57.5386V72.6096ZM63.8091 72.6096H68.8257V72.926H63.8091V72.6096ZM70.0796 72.6096H75.0962V72.926H70.0796V72.6096ZM76.3501 72.6096H81.3667V72.926H76.3501V72.6096ZM82.6206 72.6096H87.6372V72.926H82.6206V72.6096ZM88.8911 72.7678V72.6096H93.9077V72.926H88.8921V72.7678H88.8911ZM95.1626 72.6096H100.179V72.926H95.1626V72.6096ZM101.433 72.6096H106.45V72.926H101.433V72.6096ZM107.704 72.6096H112.72V72.926H107.704V72.6096ZM113.974 72.6096H118.991V72.926H113.974V72.6096ZM120.245 72.6096H125.261V72.926H120.245V72.6096ZM126.515 72.6096H131.532V72.926H126.515V72.6096ZM132.786 72.7678V72.6096H137.802V72.926H132.787V72.7678H132.786ZM139.057 72.6096H144.074V72.926H139.057V72.6096ZM145.328 72.6096H150.344V72.926H145.328V72.6096ZM151.598 72.6096H156.615V72.926H151.598V72.6096ZM157.869 72.6096H162.885V72.926H157.869V72.6096ZM164.139 72.6096H169.156V72.926H164.139V72.6096ZM170.41 72.6096H175.426V72.926H170.41V72.6096ZM176.68 72.6096H181.697V72.926H176.68V72.6096ZM182.952 72.6096H187.968V72.926H182.952V72.6096ZM189.222 72.6096H194.239V72.926H189.222V72.6096ZM195.493 72.6096H200.509V72.926H195.493V72.6096ZM201.763 72.6096H206.78V72.926H201.763V72.6096ZM208.034 72.6096H213.05V72.926H208.034V72.6096ZM214.304 72.6096H219.321V72.926H214.304V72.6096ZM220.575 72.6096H225.591V72.926H220.575V72.6096ZM226.846 72.6096H231.862V72.7678H231.863V72.926H226.846V72.6096ZM233.117 72.6096H238.133V72.926H233.117V72.6096ZM239.387 72.6096H244.404V72.926H239.387V72.6096ZM245.658 72.6096H250.674V72.926H245.658V72.6096ZM251.928 72.6096H256.945V72.926H251.928V72.6096ZM258.199 72.6096H263.215V72.926H258.199V72.6096ZM264.469 72.6096H269.486V72.926H264.469V72.6096ZM270.74 72.7678V72.6096H275.756V72.7678H275.757V72.926H270.741V72.7678H270.74ZM277.011 72.6096H282.028V72.926H277.011V72.6096ZM283.282 72.6096H288.298V72.926H283.282V72.6096ZM289.552 72.6096H294.569V72.926H289.552V72.6096ZM295.823 72.6096H300.839V72.926H295.823V72.6096ZM302.093 72.6096H307.11V72.926H302.093V72.6096ZM308.364 72.6096H313.38V72.926H308.364V72.6096Z" stroke="white" stroke-width="0.31619" stroke-dasharray="1.26 5.06"/>
<g clip-path="url(#clip17_646_7723)">
<path fill-rule="evenodd" clip-rule="evenodd" d="M6.00781 71.1905C6.00781 70.6666 6.4325 70.2419 6.95638 70.2419H14.545C15.0688 70.2419 15.4935 70.6666 15.4935 71.1905V74.3524C15.4935 74.8763 15.0688 75.301 14.545 75.301H6.95638C6.4325 75.301 6.00781 74.8763 6.00781 74.3524V71.1905Z" fill="white"/>
<path d="M8.75258 73.4792C8.59838 73.4792 8.46065 73.4526 8.33938 73.3995C8.21886 73.3463 8.12342 73.2726 8.05306 73.1783C7.98344 73.0832 7.94601 72.9732 7.94077 72.8482H8.29334C8.29784 72.9163 8.32067 72.9754 8.36184 73.0256C8.40376 73.075 8.4584 73.1131 8.52577 73.1401C8.59314 73.167 8.668 73.1805 8.75034 73.1805C8.84091 73.1805 8.92101 73.1648 8.99062 73.1334C9.06099 73.1019 9.11601 73.0581 9.15568 73.002C9.19536 72.9451 9.21519 72.8796 9.21519 72.8055C9.21519 72.7284 9.19536 72.6606 9.15568 72.6023C9.11676 72.5431 9.05949 72.4967 8.98389 72.463C8.90903 72.4293 8.81846 72.4125 8.71216 72.4125H8.51791V72.1295H8.71216C8.7975 72.1295 8.87235 72.1142 8.93673 72.0835C9.00185 72.0528 9.05276 72.0102 9.08943 71.9555C9.12611 71.9001 9.14445 71.8354 9.14445 71.7613C9.14445 71.6901 9.12836 71.6284 9.09617 71.576C9.06473 71.5228 9.01982 71.4813 8.96143 71.4514C8.90379 71.4214 8.83567 71.4064 8.75708 71.4064C8.68222 71.4064 8.61223 71.4203 8.5471 71.448C8.48273 71.4749 8.43033 71.5139 8.38991 71.5648C8.34949 71.6149 8.32778 71.6752 8.32478 71.7455H7.98906C7.9928 71.6213 8.02948 71.512 8.09909 71.4177C8.16946 71.3233 8.26228 71.2496 8.37756 71.1965C8.49283 71.1433 8.62084 71.1167 8.76157 71.1167C8.90903 71.1167 9.03629 71.1456 9.14333 71.2032C9.25112 71.2601 9.33421 71.3361 9.3926 71.4311C9.45174 71.5262 9.48093 71.6303 9.48018 71.7433C9.48093 71.872 9.445 71.9813 9.37239 72.0712C9.30053 72.161 9.20471 72.2212 9.08494 72.2519V72.2699C9.23765 72.2931 9.35592 72.3537 9.43976 72.4518C9.52435 72.5499 9.56627 72.6715 9.56552 72.8167C9.56627 72.9432 9.53108 73.0566 9.45997 73.1569C9.38961 73.2572 9.29342 73.3362 9.1714 73.3939C9.04939 73.4507 8.90978 73.4792 8.75258 73.4792ZM10.749 73.4792C10.6083 73.4792 10.4818 73.4522 10.3695 73.3983C10.2579 73.3437 10.1689 73.2688 10.1022 73.1738C10.0356 73.0787 10.0001 72.9702 9.99556 72.8482H10.3324C10.3406 72.947 10.3844 73.0282 10.4638 73.0918C10.5431 73.1554 10.6382 73.1873 10.749 73.1873C10.8373 73.1873 10.9155 73.167 10.9837 73.1266C11.0525 73.0855 11.1064 73.0289 11.1453 72.9571C11.185 72.8852 11.2049 72.8032 11.2049 72.7112C11.2049 72.6176 11.1846 72.5341 11.1442 72.4608C11.1038 72.3874 11.048 72.3298 10.9769 72.2879C10.9066 72.2459 10.8257 72.2246 10.7344 72.2239C10.6648 72.2239 10.5948 72.2358 10.5244 72.2598C10.4541 72.2837 10.3972 72.3152 10.3537 72.3541L10.036 72.307L10.1651 71.1482H11.4294V71.4457H10.4537L10.3807 72.0891H10.3942C10.4391 72.0457 10.4986 72.0094 10.5727 71.9802C10.6476 71.951 10.7277 71.9364 10.813 71.9364C10.953 71.9364 11.0776 71.9697 11.1869 72.0363C11.2969 72.103 11.3834 72.1939 11.4463 72.3092C11.5099 72.4237 11.5413 72.5555 11.5406 72.7044C11.5413 72.8534 11.5076 72.9863 11.4395 73.103C11.3722 73.2198 11.2786 73.3119 11.1588 73.3793C11.0398 73.4459 10.9032 73.4792 10.749 73.4792ZM12.7513 73.4859C12.5739 73.4852 12.4223 73.4384 12.2965 73.3456C12.1708 73.2528 12.0746 73.1176 12.008 72.9402C11.9413 72.7628 11.908 72.5491 11.908 72.2991C11.908 72.0498 11.9413 71.8369 12.008 71.6602C12.0753 71.4835 12.1719 71.3488 12.2977 71.256C12.4242 71.1632 12.5754 71.1167 12.7513 71.1167C12.9272 71.1167 13.078 71.1635 13.2038 71.2571C13.3295 71.3499 13.4257 71.4847 13.4924 71.6613C13.5597 71.8372 13.5934 72.0498 13.5934 72.2991C13.5934 72.5499 13.5601 72.7639 13.4935 72.9414C13.4269 73.118 13.3307 73.2531 13.2049 73.3467C13.0792 73.4395 12.9279 73.4859 12.7513 73.4859ZM12.7513 73.1861C12.907 73.1861 13.0286 73.1102 13.1162 72.9582C13.2045 72.8062 13.2487 72.5865 13.2487 72.2991C13.2487 72.1082 13.2285 71.9469 13.1881 71.8152C13.1484 71.6827 13.0911 71.5823 13.0163 71.5142C12.9422 71.4454 12.8538 71.4109 12.7513 71.4109C12.5963 71.4109 12.4747 71.4873 12.3864 71.64C12.298 71.7927 12.2535 72.0124 12.2527 72.2991C12.2527 72.4907 12.2726 72.6528 12.3123 72.7853C12.3527 72.917 12.4099 73.017 12.484 73.0851C12.5582 73.1524 12.6472 73.1861 12.7513 73.1861Z" fill="#172B5F"/>
</g>
<g filter="url(#filter0_d_646_7723)">
<g clip-path="url(#clip18_646_7723)">
<circle cx="123.306" cy="73.3963" r="3.1619" fill="white"/>
<circle cx="123.468" cy="73.5582" r="0.948571" fill="white"/>
<mask id="mask0_646_7723" style="mask-type:luminance" maskUnits="userSpaceOnUse" x="122" y="72" width="3" height="3">
<circle cx="123.468" cy="73.5582" r="0.948571" fill="white"/>
</mask>
<g mask="url(#mask0_646_7723)">
</g>
</g>
</g>
<g clip-path="url(#clip19_646_7723)">
<g filter="url(#filter1_d_646_7723)">
<g clip-path="url(#clip20_646_7723)">
<path d="M131.196 54.4324C131.895 54.4324 132.461 54.9986 132.461 55.697V64.2703C132.461 64.9687 131.895 65.5349 131.196 65.5349H125.082L123.621 67.2048C123.369 67.4927 122.921 67.4926 122.669 67.2048L121.208 65.5349H115.726C115.027 65.5349 114.461 64.9687 114.461 64.2703V55.697C114.461 54.9986 115.027 54.4324 115.726 54.4324H131.196Z" fill="white"/>
</g>
</g>
<path d="M116.011 62.1788V58.6589H116.901V62.1788H116.011ZM114.696 60.8638V59.9739H118.216V60.8638H114.696ZM121.462 57.8634V62.9543H120.386V58.8851H120.356L119.19 59.6159V58.6614L120.451 57.8634H121.462ZM124.572 63.0239C124.189 63.0239 123.848 62.9618 123.55 62.8375C123.253 62.7116 123.02 62.54 122.851 62.323C122.682 62.1059 122.598 61.8598 122.598 61.5847C122.598 61.3726 122.646 61.1778 122.742 61.0005C122.84 60.8215 122.972 60.6732 123.14 60.5556C123.307 60.4362 123.494 60.36 123.702 60.3269V60.2921C123.43 60.2374 123.209 60.1056 123.04 59.8968C122.871 59.6864 122.787 59.4419 122.787 59.1635C122.787 58.9 122.864 58.6655 123.018 58.46C123.172 58.2529 123.383 58.0905 123.652 57.9728C123.922 57.8535 124.229 57.7938 124.572 57.7938C124.915 57.7938 125.22 57.8535 125.489 57.9728C125.759 58.0921 125.971 58.2554 126.125 58.4625C126.279 58.668 126.357 58.9017 126.359 59.1635C126.357 59.4436 126.271 59.688 126.1 59.8968C125.93 60.1056 125.711 60.2374 125.444 60.2921V60.3269C125.648 60.36 125.833 60.4362 125.998 60.5556C126.166 60.6732 126.298 60.8215 126.396 61.0005C126.496 61.1778 126.546 61.3726 126.548 61.5847C126.546 61.8598 126.461 62.1059 126.292 62.323C126.123 62.54 125.889 62.7116 125.591 62.8375C125.294 62.9618 124.954 63.0239 124.572 63.0239ZM124.572 62.2335C124.742 62.2335 124.891 62.2028 125.019 62.1415C125.147 62.0785 125.246 61.9923 125.317 61.883C125.39 61.7719 125.427 61.6443 125.427 61.5002C125.427 61.3527 125.389 61.2226 125.315 61.1099C125.24 60.9955 125.139 60.9061 125.012 60.8414C124.884 60.7751 124.737 60.742 124.572 60.742C124.407 60.742 124.261 60.7751 124.132 60.8414C124.002 60.9061 123.9 60.9955 123.826 61.1099C123.753 61.2226 123.716 61.3527 123.716 61.5002C123.716 61.6443 123.752 61.7719 123.823 61.883C123.895 61.9923 123.995 62.0785 124.124 62.1415C124.253 62.2028 124.403 62.2335 124.572 62.2335ZM124.572 59.959C124.714 59.959 124.841 59.93 124.952 59.872C125.063 59.814 125.15 59.7336 125.213 59.6308C125.276 59.5281 125.307 59.4096 125.307 59.2754C125.307 59.1428 125.276 59.0268 125.213 58.9274C125.15 58.8263 125.064 58.7476 124.954 58.6912C124.845 58.6332 124.717 58.6042 124.572 58.6042C124.427 58.6042 124.3 58.6332 124.189 58.6912C124.078 58.7476 123.991 58.8263 123.928 58.9274C123.866 59.0268 123.836 59.1428 123.836 59.2754C123.836 59.4096 123.867 59.5281 123.93 59.6308C123.993 59.7336 124.08 59.814 124.191 59.872C124.302 59.93 124.429 59.959 124.572 59.959ZM130.087 61.9998V61.7313C130.087 61.5275 130.13 61.3402 130.216 61.1695C130.304 60.9972 130.431 60.8596 130.597 60.7569C130.764 60.6525 130.968 60.6003 131.208 60.6003C131.452 60.6003 131.656 60.6517 131.822 60.7544C131.989 60.8572 132.115 60.9947 132.2 61.1671C132.286 61.3378 132.329 61.5258 132.329 61.7313V61.9998C132.329 62.2036 132.286 62.3917 132.2 62.5641C132.114 62.7348 131.987 62.8715 131.82 62.9742C131.652 63.0786 131.448 63.1308 131.208 63.1308C130.964 63.1308 130.76 63.0786 130.594 62.9742C130.428 62.8715 130.302 62.7348 130.216 62.5641C130.13 62.3917 130.087 62.2036 130.087 61.9998ZM130.81 61.7313V61.9998C130.81 62.1175 130.838 62.2285 130.895 62.3329C130.953 62.4373 131.057 62.4895 131.208 62.4895C131.359 62.4895 131.462 62.4381 131.516 62.3354C131.573 62.2326 131.601 62.1208 131.601 61.9998V61.7313C131.601 61.6104 131.574 61.4977 131.521 61.3933C131.468 61.2889 131.364 61.2367 131.208 61.2367C131.059 61.2367 130.955 61.2889 130.897 61.3933C130.839 61.4977 130.81 61.6104 130.81 61.7313ZM127.474 59.0864V58.818C127.474 58.6125 127.518 58.4244 127.606 58.2537C127.694 58.0814 127.821 57.9438 127.986 57.8411C128.154 57.7383 128.356 57.6869 128.593 57.6869C128.838 57.6869 129.044 57.7383 129.209 57.8411C129.375 57.9438 129.501 58.0814 129.587 58.2537C129.673 58.4244 129.717 58.6125 129.717 58.818V59.0864C129.717 59.2919 129.673 59.48 129.585 59.6507C129.499 59.8214 129.372 59.9581 129.204 60.0609C129.039 60.162 128.835 60.2125 128.593 60.2125C128.351 60.2125 128.146 60.1611 127.979 60.0584C127.813 59.954 127.687 59.8173 127.601 59.6482C127.517 59.4775 127.474 59.2903 127.474 59.0864ZM128.203 58.818V59.0864C128.203 59.2074 128.231 59.3193 128.287 59.422C128.345 59.5248 128.447 59.5761 128.593 59.5761C128.745 59.5761 128.849 59.5248 128.904 59.422C128.96 59.3193 128.988 59.2074 128.988 59.0864V58.818C128.988 58.697 128.962 58.5843 128.909 58.4799C128.856 58.3755 128.75 58.3233 128.593 58.3233C128.445 58.3233 128.344 58.3763 128.287 58.4824C128.231 58.5885 128.203 58.7003 128.203 58.818ZM127.802 62.9543L131.302 57.8634H131.954L128.454 62.9543H127.802Z" fill="#172B5F"/>
</g>
<defs>
<filter id="filter0_d_646_7723" x="117.777" y="68.8153" width="11.3833" height="11.3828" filterUnits="userSpaceOnUse" color-interpolation-filters="sRGB">
<feFlood flood-opacity="0" result="BackgroundImageFix"/>
<feColorMatrix in="SourceAlpha" type="matrix" values="0 0 0 0 0 0 0 0 0 0 0 0 0 0 0 0 0 0 127 0" result="hardAlpha"/>
<feOffset dy="0.948571"/>
<feGaussianBlur stdDeviation="1.26476"/>
<feColorMatrix type="matrix" values="0 0 0 0 0.439216 0 0 0 0 0.470588 0 0 0 0 0.529412 0 0 0 0.24 0"/>
<feBlend mode="normal" in2="BackgroundImageFix" result="effect1_dropShadow_646_7723"/>
<feBlend mode="normal" in="SourceGraphic" in2="effect1_dropShadow_646_7723" result="shape"/>
</filter>
<filter id="filter1_d_646_7723" x="106.872" y="50.0057" width="33.1771" height="28.0744" filterUnits="userSpaceOnUse" color-interpolation-filters="sRGB">
<feFlood flood-opacity="0" result="BackgroundImageFix"/>
<feColorMatrix in="SourceAlpha" type="matrix" values="0 0 0 0 0 0 0 0 0 0 0 0 0 0 0 0 0 0 127 0" result="hardAlpha"/>
<feOffset dy="3.1619"/>
<feGaussianBlur stdDeviation="3.79429"/>
<feColorMatrix type="matrix" values="0 0 0 0 0.113725 0 0 0 0 0.164706 0 0 0 0 0.266667 0 0 0 0.12 0"/>
<feBlend mode="normal" in2="BackgroundImageFix" result="effect1_dropShadow_646_7723"/>
<feBlend mode="normal" in="SourceGraphic" in2="effect1_dropShadow_646_7723" result="shape"/>
</filter>
<clipPath id="clip0_646_7723">
<rect width="296.587" height="138.587" fill="white" transform="translate(17.7065 15.1772)"/>
</clipPath>
<clipPath id="clip1_646_7723">
<rect width="297" height="146.272" fill="white" transform="translate(17.7065 15.4934)"/>
</clipPath>
<clipPath id="clip2_646_7723">
<rect width="21.2143" height="146.272" fill="white" transform="translate(293.492 15.4934)"/>
</clipPath>
<clipPath id="clip3_646_7723">
<rect width="21.2143" height="146.272" fill="white" transform="translate(272.278 15.4934)"/>
</clipPath>
<clipPath id="clip4_646_7723">
<rect width="21.2143" height="146.272" fill="white" transform="translate(251.063 15.4934)"/>
</clipPath>
<clipPath id="clip5_646_7723">
<rect width="21.2143" height="146.272" fill="white" transform="translate(229.85 15.4934)"/>
</clipPath>
<clipPath id="clip6_646_7723">
<rect width="21.2143" height="146.272" fill="white" transform="translate(208.635 15.4934)"/>
</clipPath>
<clipPath id="clip7_646_7723">
<rect width="21.2143" height="146.272" fill="white" transform="translate(187.421 15.4934)"/>
</clipPath>
<clipPath id="clip8_646_7723">
<rect width="21.2143" height="146.272" fill="white" transform="translate(166.207 15.4934)"/>
</clipPath>
<clipPath id="clip9_646_7723">
<rect width="21.2143" height="146.272" fill="white" transform="translate(144.992 15.4934)"/>
</clipPath>
<clipPath id="clip10_646_7723">
<rect width="21.2143" height="146.272" fill="white" transform="translate(123.778 15.4934)"/>
</clipPath>
<clipPath id="clip11_646_7723">
<rect width="21.2143" height="146.272" fill="white" transform="translate(102.563 15.4934)"/>
</clipPath>
<clipPath id="clip12_646_7723">
<rect width="21.2143" height="146.272" fill="white" transform="translate(81.3496 15.4934)"/>
</clipPath>
<clipPath id="clip13_646_7723">
<rect width="21.2143" height="146.272" fill="white" transform="translate(60.1348 15.4934)"/>
</clipPath>
<clipPath id="clip14_646_7723">
<rect width="21.2143" height="146.272" fill="white" transform="translate(38.9209 15.4934)"/>
</clipPath>
<clipPath id="clip15_646_7723">
<rect width="21.2143" height="146.272" fill="white" transform="translate(17.7065 15.4934)"/>
</clipPath>
<clipPath id="clip16_646_7723">
<rect width="308.383" height="139" fill="white" transform="translate(6.32373 15.1772)"/>
</clipPath>
<clipPath id="clip17_646_7723">
<rect width="9.48571" height="6.32381" fill="white" transform="translate(6.00781 69.6096)"/>
</clipPath>
<clipPath id="clip18_646_7723">
<rect width="6.32381" height="6.32381" fill="white" transform="translate(120.307 70.3962)"/>
</clipPath>
<clipPath id="clip19_646_7723">
<rect width="18.339" height="11.3829" fill="white" transform="translate(114.461 54.4324)"/>
</clipPath>
<clipPath id="clip20_646_7723">
<rect width="18" height="12.8971" fill="white" transform="translate(114.461 54.4324)"/>
</clipPath>
</defs>
</svg>
