<?xml version="1.0" encoding="UTF-8"?>
<svg id="Solid" xmlns="http://www.w3.org/2000/svg" viewBox="0 0 64 64">
  <path d="M41,8h-3.58c-.77,0-1.54-.18-2.24-.53l-2.73-1.37c-.28-.14-.61-.14-.89,0l-2.73,1.37c-.69.35-1.46.53-2.24.53h-3.58c-.55,0-1,.45-1,1v10.1c0,2.76,1.63,5.27,4.16,6.4l5.44,2.42c.13.06.27.09.41.09s.28-.03.41-.09l5.44-2.42c2.53-1.12,4.16-3.63,4.16-6.4v-10.1c0-.55-.45-1-1-1ZM35.71,14.71l-4,4c-.2.2-.45.29-.71.29s-.51-.1-.71-.29l-2.01-2.01c-.39-.39-.39-1.02,0-1.41s1.02-.39,1.41,0l1.3,1.3,3.29-3.29c.39-.39,1.02-.39,1.41,0s.39,1.02,0,1.41Z"/>
  <g>
    <circle cx="46" cy="48" r="2"/>
    <circle cx="18" cy="48" r="2"/>
    <path d="M47,42h-30c-2.76,0-5,2.24-5,5v6c0,.55.45,1,1,1h38c.55,0,1-.45,1-1v-6c0-2.76-2.24-5-5-5ZM18,52c-2.21,0-4-1.79-4-4s1.79-4,4-4,4,1.79,4,4-1.79,4-4,4ZM36,52h-8c-.55,0-1-.45-1-1s.45-1,1-1h8c.55,0,1,.45,1,1s-.45,1-1,1ZM36,48h-8c-.55,0-1-.45-1-1s.45-1,1-1h8c.55,0,1,.45,1,1s-.45,1-1,1ZM46,52c-2.21,0-4-1.79-4-4s1.79-4,4-4,4,1.79,4,4-1.79,4-4,4Z"/>
    <path d="M45,57c0,.55.45,1,1,1h2c.55,0,1-.45,1-1v-1h-4v1Z"/>
    <path d="M15,57c0,.55.45,1,1,1h2c.55,0,1-.45,1-1v-1h-4v1Z"/>
    <path d="M55,30h-4c-1.65,0-3,1.35-3,3v1.59l-2.39,2.39-1.64-4.93c-.41-1.23-1.55-2.05-2.85-2.05h-18.23c-1.29,0-2.44.82-2.85,2.05l-1.64,4.93-2.39-2.39v-1.59c0-1.65-1.35-3-3-3h-4c-1.65,0-3,1.35-3,3s1.35,3,3,3h5.59l3.1,3.1-.3.9h29.22l-.3-.9,3.1-3.1h5.59c1.65,0,3-1.35,3-3s-1.35-3-3-3Z"/>
  </g>
</svg>